<mxfile host="app.diagrams.net" modified="2022-12-06T18:12:33.197Z" agent="5.0 (Macintosh; Intel Mac OS X 10_15_7) AppleWebKit/537.36 (KHTML, like Gecko) Chrome/107.0.0.0 Safari/537.36" etag="nhWItrMkT9SN_drwcc6-" version="20.6.0" type="github">
  <diagram name="Page-1" id="b98fa263-6416-c6ec-5b7d-78bf54ef71d0">
    <mxGraphModel dx="1794" dy="1241" grid="1" gridSize="10" guides="1" tooltips="1" connect="1" arrows="1" fold="1" page="1" pageScale="1.5" pageWidth="1169" pageHeight="826" background="none" math="0" shadow="0">
      <root>
        <mxCell id="0" style=";html=1;" />
        <mxCell id="1" style=";html=1;" parent="0" />
        <mxCell id="303ed1de8c2c98b4-5" value="PaymentComponent -/Payments" style="whiteSpace=wrap;html=1;rounded=1;shadow=1;strokeWidth=1;fontSize=16;align=center;fillColor=#f5f5f5;strokeColor=#666666;" parent="1" vertex="1">
          <mxGeometry x="440" y="415" width="275" height="40" as="geometry" />
        </mxCell>
        <mxCell id="303ed1de8c2c98b4-6" value="ResultComponent - /Results" style="whiteSpace=wrap;html=1;rounded=1;shadow=1;strokeWidth=1;fontSize=16;align=center;fillColor=#f5f5f5;strokeColor=#666666;" parent="1" vertex="1">
          <mxGeometry x="755" y="415" width="275" height="40" as="geometry" />
        </mxCell>
        <mxCell id="303ed1de8c2c98b4-7" value="CourseComponent -/Courses" style="whiteSpace=wrap;html=1;rounded=1;shadow=1;strokeWidth=1;fontSize=16;align=center;fillColor=#f5f5f5;strokeColor=#666666;" parent="1" vertex="1">
          <mxGeometry x="118" y="415" width="275" height="40" as="geometry" />
        </mxCell>
        <mxCell id="303ed1de8c2c98b4-18" value="SelectAHallComponent - /Accomodation/Halls/" style="whiteSpace=wrap;html=1;rounded=1;shadow=1;strokeWidth=1;fontSize=16;align=center;fillColor=#f5f5f5;strokeColor=#666666;" parent="1" vertex="1">
          <mxGeometry x="987.5" y="600" width="270" height="80" as="geometry" />
        </mxCell>
        <mxCell id="303ed1de8c2c98b4-37" value="Hall Component 2&amp;nbsp;" style="whiteSpace=wrap;html=1;rounded=1;shadow=1;strokeWidth=1;fontSize=16;align=center;fillColor=#f5f5f5;strokeColor=#666666;" parent="1" vertex="1">
          <mxGeometry x="910" y="820" width="220" height="70" as="geometry" />
        </mxCell>
        <mxCell id="303ed1de8c2c98b4-72" value="App Component - /" style="whiteSpace=wrap;html=1;rounded=1;shadow=1;strokeWidth=1;fontSize=16;align=center;fillColor=#f5f5f5;strokeColor=#666666;" parent="1" vertex="1">
          <mxGeometry x="771.5" y="170" width="242" height="40" as="geometry" />
        </mxCell>
        <mxCell id="303ed1de8c2c98b4-73" value="AccomodationComponent -/Accomodation" style="whiteSpace=wrap;html=1;rounded=1;shadow=1;strokeWidth=1;fontSize=16;align=center;fillColor=#f5f5f5;strokeColor=#666666;" parent="1" vertex="1">
          <mxGeometry x="1150" y="500" width="280" height="80" as="geometry" />
        </mxCell>
        <mxCell id="303ed1de8c2c98b4-77" style="edgeStyle=orthogonalEdgeStyle;html=1;startSize=6;endFill=0;endSize=6;strokeWidth=1;fontSize=16;rounded=0;endArrow=none;" parent="1" source="303ed1de8c2c98b4-72" edge="1">
          <mxGeometry relative="1" as="geometry">
            <mxPoint x="885" y="300" as="targetPoint" />
            <Array as="points">
              <mxPoint x="885" y="260" />
              <mxPoint x="885" y="260" />
            </Array>
          </mxGeometry>
        </mxCell>
        <mxCell id="303ed1de8c2c98b4-79" style="edgeStyle=orthogonalEdgeStyle;html=1;startSize=6;endFill=0;endSize=6;strokeWidth=1;fontSize=16;rounded=0;endArrow=none;" parent="1" edge="1">
          <mxGeometry relative="1" as="geometry">
            <mxPoint x="1680" y="310" as="sourcePoint" />
            <mxPoint x="885" y="370" as="targetPoint" />
            <Array as="points">
              <mxPoint x="885" y="270" />
              <mxPoint x="885" y="270" />
            </Array>
          </mxGeometry>
        </mxCell>
        <mxCell id="303ed1de8c2c98b4-80" style="edgeStyle=orthogonalEdgeStyle;html=1;startSize=6;endFill=0;endSize=6;strokeWidth=1;fontSize=16;rounded=0;endArrow=none;" parent="1" target="303ed1de8c2c98b4-5" edge="1">
          <mxGeometry relative="1" as="geometry">
            <Array as="points">
              <mxPoint x="886" y="390" />
              <mxPoint x="578" y="390" />
            </Array>
            <mxPoint x="886" y="375" as="sourcePoint" />
          </mxGeometry>
        </mxCell>
        <mxCell id="303ed1de8c2c98b4-81" style="edgeStyle=elbowEdgeStyle;html=1;startSize=6;endFill=0;endSize=6;strokeWidth=1;fontSize=16;rounded=0;endArrow=none;" parent="1" target="303ed1de8c2c98b4-6" edge="1">
          <mxGeometry relative="1" as="geometry">
            <Array as="points">
              <mxPoint x="885" y="395" />
            </Array>
            <mxPoint x="885" y="375" as="sourcePoint" />
          </mxGeometry>
        </mxCell>
        <mxCell id="303ed1de8c2c98b4-82" style="edgeStyle=orthogonalEdgeStyle;html=1;startSize=6;endFill=0;endSize=6;strokeWidth=1;fontSize=16;rounded=0;endArrow=none;exitX=0.5;exitY=1;" parent="1" target="303ed1de8c2c98b4-7" edge="1">
          <mxGeometry relative="1" as="geometry">
            <Array as="points">
              <mxPoint x="885" y="390" />
              <mxPoint x="260" y="390" />
            </Array>
            <mxPoint x="885" y="375" as="sourcePoint" />
          </mxGeometry>
        </mxCell>
        <mxCell id="303ed1de8c2c98b4-83" style="edgeStyle=orthogonalEdgeStyle;html=1;startSize=6;endFill=0;endSize=6;strokeWidth=1;fontSize=16;rounded=0;endArrow=none;" parent="1" target="303ed1de8c2c98b4-8" edge="1">
          <mxGeometry relative="1" as="geometry">
            <Array as="points">
              <mxPoint x="885" y="390" />
              <mxPoint x="1310" y="390" />
            </Array>
            <mxPoint x="885" y="375" as="sourcePoint" />
          </mxGeometry>
        </mxCell>
        <mxCell id="303ed1de8c2c98b4-8" value="MoreComponent - /More" style="whiteSpace=wrap;html=1;rounded=1;shadow=1;strokeWidth=1;fontSize=16;align=center;fillColor=#f5f5f5;strokeColor=#666666;points=[[0,0,0,0,0],[0,0.25,0,0,0],[0,0.5,0,0,0],[0,0.75,0,0,0],[0,1,0,0,0],[0.25,0,0,0,0],[0.25,1,0,0,0],[0.5,0,0,0,0],[0.5,1,0,0,0],[0.75,0,0,0,0],[0.75,1,0,0,0],[1,0,0,0,0],[1,0.25,0,0,0],[1,0.5,0,0,0],[1,0.75,0,0,0],[1,1,0,0,0]];" parent="1" vertex="1">
          <mxGeometry x="1140" y="415" width="275" height="40" as="geometry" />
        </mxCell>
        <mxCell id="303ed1de8c2c98b4-47" value="Hall Component 1&amp;nbsp;" style="whiteSpace=wrap;html=1;rounded=1;shadow=1;strokeWidth=1;fontSize=16;align=center;fillColor=#f5f5f5;strokeColor=#666666;" parent="1" vertex="1">
          <mxGeometry x="910" y="720" width="220" height="70" as="geometry" />
        </mxCell>
        <mxCell id="5dvdxru6lziGcTcdpwPS-18" value="AvailabiltyLegendComponent" style="whiteSpace=wrap;html=1;rounded=1;shadow=1;strokeWidth=1;fontSize=16;align=center;fillColor=#f5f5f5;strokeColor=#666666;" vertex="1" parent="1">
          <mxGeometry x="1195" y="1120" width="230" height="70" as="geometry" />
        </mxCell>
        <mxCell id="5dvdxru6lziGcTcdpwPS-20" style="edgeStyle=none;rounded=0;orthogonalLoop=1;jettySize=auto;html=1;exitX=1;exitY=0.5;exitDx=0;exitDy=0;" edge="1" parent="1" source="303ed1de8c2c98b4-73" target="303ed1de8c2c98b4-73">
          <mxGeometry relative="1" as="geometry" />
        </mxCell>
        <mxCell id="5dvdxru6lziGcTcdpwPS-23" style="edgeStyle=none;rounded=0;orthogonalLoop=1;jettySize=auto;html=1;exitX=1;exitY=0.5;exitDx=0;exitDy=0;" edge="1" parent="1" source="303ed1de8c2c98b4-18" target="303ed1de8c2c98b4-18">
          <mxGeometry relative="1" as="geometry" />
        </mxCell>
        <mxCell id="5dvdxru6lziGcTcdpwPS-24" value="FloorComponent - Floor1" style="whiteSpace=wrap;html=1;rounded=1;shadow=1;strokeWidth=1;fontSize=16;align=center;fillColor=#f5f5f5;strokeColor=#666666;" vertex="1" parent="1">
          <mxGeometry x="1210" y="710" width="220" height="70" as="geometry" />
        </mxCell>
        <mxCell id="5dvdxru6lziGcTcdpwPS-26" value="SelectARoomComponent - /Accomodation/Rooms?hallId=`${hallId}" style="whiteSpace=wrap;html=1;fontSize=16;fillColor=#f5f5f5;strokeColor=#666666;rounded=1;shadow=1;strokeWidth=1;" vertex="1" parent="1">
          <mxGeometry x="1330" y="610" width="330" height="70" as="geometry" />
        </mxCell>
        <mxCell id="5dvdxru6lziGcTcdpwPS-28" value="FloorComponent - Floor2" style="whiteSpace=wrap;html=1;fontSize=16;fillColor=#f5f5f5;strokeColor=#666666;rounded=1;shadow=1;strokeWidth=1;" vertex="1" parent="1">
          <mxGeometry x="1540" y="710" width="230" height="70" as="geometry" />
        </mxCell>
        <mxCell id="5dvdxru6lziGcTcdpwPS-33" style="edgeStyle=none;rounded=0;orthogonalLoop=1;jettySize=auto;html=1;exitX=1;exitY=0.5;exitDx=0;exitDy=0;" edge="1" parent="1" source="5dvdxru6lziGcTcdpwPS-28" target="5dvdxru6lziGcTcdpwPS-28">
          <mxGeometry relative="1" as="geometry" />
        </mxCell>
        <mxCell id="5dvdxru6lziGcTcdpwPS-34" style="edgeStyle=none;rounded=0;orthogonalLoop=1;jettySize=auto;html=1;exitX=1;exitY=0.5;exitDx=0;exitDy=0;" edge="1" parent="1">
          <mxGeometry relative="1" as="geometry">
            <mxPoint x="1640" y="985" as="sourcePoint" />
            <mxPoint x="1640" y="985" as="targetPoint" />
          </mxGeometry>
        </mxCell>
        <mxCell id="5dvdxru6lziGcTcdpwPS-35" value="Room Component" style="whiteSpace=wrap;html=1;fontSize=16;fillColor=#f5f5f5;strokeColor=#666666;rounded=1;shadow=1;strokeWidth=1;" vertex="1" parent="1">
          <mxGeometry x="1260" y="820" width="100" height="55" as="geometry" />
        </mxCell>
        <mxCell id="5dvdxru6lziGcTcdpwPS-43" value="Room Component" style="whiteSpace=wrap;html=1;fontSize=16;fillColor=#f5f5f5;strokeColor=#666666;rounded=1;shadow=1;strokeWidth=1;" vertex="1" parent="1">
          <mxGeometry x="1260" y="910" width="100" height="55" as="geometry" />
        </mxCell>
        <mxCell id="5dvdxru6lziGcTcdpwPS-44" value="Room Component" style="whiteSpace=wrap;html=1;fontSize=16;fillColor=#f5f5f5;strokeColor=#666666;rounded=1;shadow=1;strokeWidth=1;" vertex="1" parent="1">
          <mxGeometry x="1260" y="1010" width="100" height="55" as="geometry" />
        </mxCell>
        <mxCell id="5dvdxru6lziGcTcdpwPS-45" value="Room Component" style="whiteSpace=wrap;html=1;fontSize=16;fillColor=#f5f5f5;strokeColor=#666666;rounded=1;shadow=1;strokeWidth=1;" vertex="1" parent="1">
          <mxGeometry x="1620" y="1010" width="100" height="55" as="geometry" />
        </mxCell>
        <mxCell id="5dvdxru6lziGcTcdpwPS-46" value="Room Component" style="whiteSpace=wrap;html=1;fontSize=16;fillColor=#f5f5f5;strokeColor=#666666;rounded=1;shadow=1;strokeWidth=1;" vertex="1" parent="1">
          <mxGeometry x="1620" y="910" width="100" height="55" as="geometry" />
        </mxCell>
        <mxCell id="5dvdxru6lziGcTcdpwPS-47" value="Room Component" style="whiteSpace=wrap;html=1;fontSize=16;fillColor=#f5f5f5;strokeColor=#666666;rounded=1;shadow=1;strokeWidth=1;" vertex="1" parent="1">
          <mxGeometry x="1620" y="820" width="100" height="55" as="geometry" />
        </mxCell>
        <mxCell id="5dvdxru6lziGcTcdpwPS-49" value="ButtonComponent" style="whiteSpace=wrap;html=1;fontSize=16;fillColor=#f5f5f5;strokeColor=#666666;rounded=1;shadow=1;strokeWidth=1;" vertex="1" parent="1">
          <mxGeometry x="1580" y="1110" width="220" height="70" as="geometry" />
        </mxCell>
        <mxCell id="5dvdxru6lziGcTcdpwPS-50" value="FooterComponent" style="whiteSpace=wrap;html=1;rounded=1;shadow=1;strokeWidth=1;fontSize=16;align=center;fillColor=#f5f5f5;strokeColor=#666666;" vertex="1" parent="1">
          <mxGeometry x="2050" y="380" width="242" height="40" as="geometry" />
        </mxCell>
        <mxCell id="5dvdxru6lziGcTcdpwPS-52" value="HeaderComponent" style="whiteSpace=wrap;html=1;rounded=1;shadow=1;strokeWidth=1;fontSize=16;align=center;fillColor=#f5f5f5;strokeColor=#666666;" vertex="1" parent="1">
          <mxGeometry x="1549" y="375" width="242" height="40" as="geometry" />
        </mxCell>
        <mxCell id="5dvdxru6lziGcTcdpwPS-53" value="" style="endArrow=none;html=1;rounded=0;exitX=0.545;exitY=-0.125;exitDx=0;exitDy=0;exitPerimeter=0;" edge="1" parent="1" source="5dvdxru6lziGcTcdpwPS-52">
          <mxGeometry width="50" height="50" relative="1" as="geometry">
            <mxPoint x="1660" y="380" as="sourcePoint" />
            <mxPoint x="1680" y="310" as="targetPoint" />
          </mxGeometry>
        </mxCell>
        <mxCell id="5dvdxru6lziGcTcdpwPS-54" value="" style="endArrow=none;html=1;rounded=0;" edge="1" parent="1">
          <mxGeometry width="50" height="50" relative="1" as="geometry">
            <mxPoint x="2170" y="310" as="sourcePoint" />
            <mxPoint x="1670" y="310" as="targetPoint" />
          </mxGeometry>
        </mxCell>
        <mxCell id="5dvdxru6lziGcTcdpwPS-55" value="" style="endArrow=none;html=1;rounded=0;" edge="1" parent="1">
          <mxGeometry width="50" height="50" relative="1" as="geometry">
            <mxPoint x="2170" y="380" as="sourcePoint" />
            <mxPoint x="2170" y="310" as="targetPoint" />
          </mxGeometry>
        </mxCell>
        <mxCell id="5dvdxru6lziGcTcdpwPS-58" value="ResultIconComponent" style="whiteSpace=wrap;html=1;rounded=1;shadow=1;strokeWidth=1;fontSize=16;align=center;fillColor=#f5f5f5;strokeColor=#666666;" vertex="1" parent="1">
          <mxGeometry x="2050" y="660" width="242" height="40" as="geometry" />
        </mxCell>
        <mxCell id="5dvdxru6lziGcTcdpwPS-59" value="PaymentIconComponent" style="whiteSpace=wrap;html=1;rounded=1;shadow=1;strokeWidth=1;fontSize=16;align=center;fillColor=#f5f5f5;strokeColor=#666666;" vertex="1" parent="1">
          <mxGeometry x="2050" y="570" width="242" height="40" as="geometry" />
        </mxCell>
        <mxCell id="5dvdxru6lziGcTcdpwPS-60" value="CoursesIconComponent" style="whiteSpace=wrap;html=1;rounded=1;shadow=1;strokeWidth=1;fontSize=16;align=center;fillColor=#f5f5f5;strokeColor=#666666;" vertex="1" parent="1">
          <mxGeometry x="2050" y="490" width="242" height="40" as="geometry" />
        </mxCell>
        <mxCell id="5dvdxru6lziGcTcdpwPS-61" value="MoreIconComponent" style="whiteSpace=wrap;html=1;rounded=1;shadow=1;strokeWidth=1;fontSize=16;align=center;fillColor=#f5f5f5;strokeColor=#666666;" vertex="1" parent="1">
          <mxGeometry x="2050" y="740" width="242" height="40" as="geometry" />
        </mxCell>
        <mxCell id="5dvdxru6lziGcTcdpwPS-62" value="BackButtonComponent" style="whiteSpace=wrap;html=1;rounded=1;shadow=1;strokeWidth=1;fontSize=16;align=center;fillColor=#f5f5f5;strokeColor=#666666;" vertex="1" parent="1">
          <mxGeometry x="1710" y="450" width="242" height="40" as="geometry" />
        </mxCell>
        <mxCell id="5dvdxru6lziGcTcdpwPS-63" value="NotificationComponent" style="whiteSpace=wrap;html=1;rounded=1;shadow=1;strokeWidth=1;fontSize=16;align=center;fillColor=#f5f5f5;strokeColor=#666666;" vertex="1" parent="1">
          <mxGeometry x="1710" y="520" width="242" height="40" as="geometry" />
        </mxCell>
        <mxCell id="5dvdxru6lziGcTcdpwPS-64" value="AvatarComponent" style="whiteSpace=wrap;html=1;rounded=1;shadow=1;strokeWidth=1;fontSize=16;align=center;fillColor=#f5f5f5;strokeColor=#666666;" vertex="1" parent="1">
          <mxGeometry x="1710" y="590" width="242" height="40" as="geometry" />
        </mxCell>
      </root>
    </mxGraphModel>
  </diagram>
</mxfile>
